<svg xmlns="http://www.w3.org/2000/svg" viewBox="0 0 400 250" width="100%" height="100%">
  <defs>
    <linearGradient id="pGrad5" x1="0%" y1="0%" x2="100%" y2="100%">
      <stop offset="0%" stop-color="#10B981" />
      <stop offset="100%" stop-color="#059669" />
    </linearGradient>
  </defs>
  <rect width="400" height="250" fill="#F0FDF4"/>
  <!-- Top Bar -->
  <rect width="400" height="40" fill="#ffffff" />
  <circle cx="20" cy="20" r="5" fill="#EF4444" />
  <circle cx="35" cy="20" r="5" fill="#F59E0B" />
  <circle cx="50" cy="20" r="5" fill="#10B981" />
  <rect x="75" y="12" width="60" height="16" rx="4" fill="url(#pGrad5)"/>
  
  <!-- Main Banner -->
  <rect x="20" y="60" width="360" height="100" rx="8" fill="url(#pGrad5)" />
  <!-- Graduation cap icon placeholder inside banner -->
  <g transform="translate(70, 110) scale(1.5)" fill="none" stroke="#ffffff" stroke-width="2">
    <path d="M12 2L2 7l10 5 10-5-10-5z" fill="#ffffff" opacity="0.3"/>
    <path d="M6 10v4c0 3 3 3 6 3s6 0 6-3v-4" />
    <path d="M20 7v7" />
  </g>
  <rect x="120" y="90" width="160" height="14" rx="4" fill="#ffffff" />
  <rect x="120" y="112" width="110" height="8" rx="4" fill="#A7F3D0" />
  
  <!-- Three Card Items representing courses -->
  <rect x="20" y="180" width="110" height="55" rx="6" fill="#ffffff" />
  <rect x="25" y="215" width="60" height="6" rx="3" fill="#E5E7EB" />
  <circle cx="110" cy="218" r="8" fill="url(#pGrad5)" />

  <rect x="145" y="180" width="110" height="55" rx="6" fill="#ffffff" />
  <rect x="150" y="215" width="60" height="6" rx="3" fill="#E5E7EB" />
  <circle cx="235" cy="218" r="8" fill="url(#pGrad5)" />

  <rect x="270" y="180" width="110" height="55" rx="6" fill="#ffffff" />
  <rect x="275" y="215" width="60" height="6" rx="3" fill="#E5E7EB" />
  <circle cx="360" cy="218" r="8" fill="url(#pGrad5)" />
</svg>
